<?xml version="1.0" encoding="UTF-8" standalone="no"?>
<svg
   viewBox="0 0 1024 1024"
   width="1024"
   height="1024"
   fill="none"
   role="img"
   aria-label="Code Editor app icon"
   version="1.1"
   id="svg28"
   sodipodi:docname="code-editor-app-icon.svg"
   inkscape:version="1.4.3 (0d15f75, 2025-12-25)"
   xmlns:inkscape="http://www.inkscape.org/namespaces/inkscape"
   xmlns:sodipodi="http://sodipodi.sourceforge.net/DTD/sodipodi-0.dtd"
   xmlns="http://www.w3.org/2000/svg"
   xmlns:svg="http://www.w3.org/2000/svg">
  <sodipodi:namedview
     id="namedview28"
     pagecolor="#ffffff"
     bordercolor="#000000"
     borderopacity="0.25"
     inkscape:showpageshadow="2"
     inkscape:pageopacity="0.0"
     inkscape:pagecheckerboard="0"
     inkscape:deskcolor="#d1d1d1"
     inkscape:zoom="0.44858793"
     inkscape:cx="998.68939"
     inkscape:cy="434.69739"
     inkscape:window-width="1920"
     inkscape:window-height="965"
     inkscape:window-x="-1"
     inkscape:window-y="32"
     inkscape:window-maximized="0"
     inkscape:current-layer="svg28" />
  <defs
     id="defs8">
    <linearGradient
       id="code-shell-left"
       x1="148"
       y1="148"
       x2="512"
       y2="876"
       gradientUnits="userSpaceOnUse">
      <stop
         offset="0"
         stop-color="#86d0ff"
         id="stop1" />
      <stop
         offset="1"
         stop-color="#d5f0ff"
         id="stop2" />
    </linearGradient>
    <linearGradient
       id="code-shell-right"
       x1="512"
       y1="148"
       x2="876"
       y2="876"
       gradientUnits="userSpaceOnUse">
      <stop
         offset="0"
         stop-color="#f7f8fb"
         id="stop3" />
      <stop
         offset="1"
         stop-color="#e7edf7"
         id="stop4" />
    </linearGradient>
    <linearGradient
       id="code-screen"
       x1="196"
       y1="208"
       x2="828"
       y2="718"
       gradientUnits="userSpaceOnUse">
      <stop
         offset="0"
         stop-color="#fbfdff"
         id="stop5" />
      <stop
         offset="1"
         stop-color="#eef4fb"
         id="stop6" />
    </linearGradient>
    <linearGradient
       id="code-tab-active"
       x1="432"
       y1="246"
       x2="432"
       y2="326"
       gradientUnits="userSpaceOnUse">
      <stop
         offset="0"
         stop-color="#70b7ff"
         id="stop7" />
      <stop
         offset="1"
         stop-color="#3d86ff"
         id="stop8" />
    </linearGradient>
  </defs>
  <rect
     x="120"
     y="120"
     width="784"
     height="784"
     rx="120"
     fill="#111"
     id="rect8" />
  <path
     d="M148 240C148 189.19 189.19 148 240 148H512V876H240C189.19 876 148 834.81 148 784V240Z"
     fill="url(#code-shell-left)"
     id="path8" />
  <path
     d="M512 148H784C834.81 148 876 189.19 876 240V784C876 834.81 834.81 876 784 876H512V148Z"
     fill="url(#code-shell-right)"
     id="path9" />
  <rect
     x="196"
     y="208"
     width="632"
     height="520"
     rx="82"
     fill="url(#code-screen)"
     stroke="#111111"
     stroke-width="28"
     id="rect9"
     style="display:inline" />
  <rect
     x="209.88397"
     y="219.99892"
     width="604.23206"
     height="108.00108"
     rx="78.397202"
     fill="#d6e2f1"
     id="rect10"
     style="stroke-width:0.927613" />
  <path
     d="m 209.82594,280.66544 c 0,-26.27069 16.34677,-47.33457 36.51959,-47.33457 H 777.8213 c 20.17281,0 36.51958,21.06388 36.51958,47.33457 V 328 H 209.82594 Z"
     fill="#c5d5e8"
     id="path10"
     style="stroke-width:1.09155" />
  <rect
     x="224"
     y="238"
     width="132"
     height="462"
     rx="46"
     fill="#24384d"
     id="rect11" />
  <rect
     x="388"
     y="246"
     width="172"
     height="64"
     rx="26"
     fill="url(#code-tab-active)"
     id="rect12" />
  <rect
     x="574"
     y="246"
     width="112"
     height="64"
     rx="26"
     fill="#dbe4f1"
     id="rect13" />
  <rect
     x="698"
     y="246"
     width="84"
     height="64"
     rx="26"
     fill="#dbe4f1"
     id="rect14" />
  <circle
     cx="272"
     cy="282"
     r="16"
     fill="#ff6f7b"
     id="circle14" />
  <circle
     cx="312"
     cy="282"
     r="16"
     fill="#ffbe55"
     id="circle15" />
  <g
     fill="#8fa6bf"
     id="g19">
    <rect
       x="250"
       y="366"
       width="80"
       height="18"
       rx="9"
       id="rect15" />
    <rect
       x="250"
       y="410"
       width="62"
       height="18"
       rx="9"
       id="rect16" />
    <rect
       x="250"
       y="454"
       width="88"
       height="18"
       rx="9"
       id="rect17" />
    <rect
       x="250"
       y="498"
       width="70"
       height="18"
       rx="9"
       id="rect18" />
    <rect
       x="250"
       y="542"
       width="94"
       height="18"
       rx="9"
       id="rect19" />
  </g>
  <g
     stroke="#111"
     stroke-width="24"
     stroke-linecap="round"
     stroke-linejoin="round"
     id="g21">
    <path
       d="M470 438L408 486L470 534"
       fill="none"
       id="path19" />
    <path
       d="M558 410L522 558"
       id="path20" />
    <path
       d="M600 438L662 486L600 534"
       fill="none"
       id="path21" />
  </g>
  <g
     fill="#46c1ff"
     id="g22">
    <rect
       x="418"
       y="594"
       width="172"
       height="26"
       rx="13"
       id="rect21" />
    <rect
       x="418"
       y="642"
       width="132"
       height="26"
       rx="13"
       id="rect22" />
  </g>
  <g
     fill="#78d36f"
     id="g24">
    <rect
       x="606"
       y="594"
       width="86"
       height="26"
       rx="13"
       id="rect23" />
    <rect
       x="566"
       y="642"
       width="126"
       height="26"
       rx="13"
       id="rect24" />
  </g>
  <rect
     x="706"
     y="408"
     width="44"
     height="172"
     rx="22"
     fill="#ff8366"
     id="rect25" />
  <rect
     x="148"
     y="760"
     width="728"
     height="115.38661"
     rx="56"
     fill="#efefef"
     id="rect26"
     style="stroke-width:0.997353" />
  <circle
     cx="406"
     cy="818"
     r="28"
     fill="#111"
     id="circle26" />
  <circle
     cx="512"
     cy="818"
     r="28"
     fill="#111"
     id="circle27" />
  <circle
     cx="618"
     cy="818"
     r="28"
     fill="#111"
     id="circle28" />
</svg>
