<svg xmlns="http://www.w3.org/2000/svg" viewBox="0 0 1024 1024" width="1024" height="1024" fill="none">
	<defs>
		<linearGradient id="photos-left" x1="120" y1="120" x2="520" y2="920" gradientUnits="userSpaceOnUse">
			<stop offset="0" stop-color="#88cef3" />
			<stop offset="1" stop-color="#c8eafb" />
		</linearGradient>
		<linearGradient id="photos-right" x1="512" y1="120" x2="904" y2="920" gradientUnits="userSpaceOnUse">
			<stop offset="0" stop-color="#f7f7f7" />
			<stop offset="1" stop-color="#ececec" />
		</linearGradient>
	</defs>

	<rect x="120" y="120" width="784" height="784" rx="120" fill="#111" />
	<g>
		<path d="M148 240C148 189.19 189.19 148 240 148H512V876H240C189.19 876 148 834.81 148 784V240Z" fill="url(#photos-left)" />
		<path d="M512 148H784C834.81 148 876 189.19 876 240V784C876 834.81 834.81 876 784 876H512V148Z" fill="url(#photos-right)" />
	</g>

	<rect x="204" y="218" width="616" height="520" rx="80" fill="#f8f8f8" stroke="#000" stroke-width="28" />

	<g transform="translate(512 478)" stroke="#000" stroke-width="14" stroke-linejoin="round">
		<ellipse cx="0" cy="-150" rx="52" ry="138" fill="#ff5d77" />
		<ellipse cx="0" cy="-150" rx="52" ry="138" transform="rotate(45)" fill="#ff9f4d" />
		<ellipse cx="0" cy="-150" rx="52" ry="138" transform="rotate(90)" fill="#ffd85b" />
		<ellipse cx="0" cy="-150" rx="52" ry="138" transform="rotate(135)" fill="#66d48f" />
		<ellipse cx="0" cy="-150" rx="52" ry="138" transform="rotate(180)" fill="#5fd1d4" />
		<ellipse cx="0" cy="-150" rx="52" ry="138" transform="rotate(225)" fill="#63a6ff" />
		<ellipse cx="0" cy="-150" rx="52" ry="138" transform="rotate(270)" fill="#8b84ff" />
		<ellipse cx="0" cy="-150" rx="52" ry="138" transform="rotate(315)" fill="#e46bff" />
		<circle cx="0" cy="0" r="78" fill="#fff" />
		<circle cx="0" cy="0" r="52" fill="#ff5f8c" />
	</g>

	<rect x="148" y="760" width="728" height="116" rx="56" fill="#efefef" />
	<circle cx="406" cy="818" r="28" fill="#000" />
	<circle cx="512" cy="818" r="28" fill="#000" />
	<circle cx="618" cy="818" r="28" fill="#000" />
</svg>
