<?xml version="1.0" encoding="UTF-8" standalone="no"?>
<svg
   viewBox="0 0 1024 1024"
   width="1024"
   height="1024"
   fill="none"
   version="1.1"
   id="svg16"
   sodipodi:docname="photos-app-icon.svg"
   inkscape:version="1.4.3 (0d15f75, 2025-12-25)"
   xmlns:inkscape="http://www.inkscape.org/namespaces/inkscape"
   xmlns:sodipodi="http://sodipodi.sourceforge.net/DTD/sodipodi-0.dtd"
   xmlns="http://www.w3.org/2000/svg"
   xmlns:svg="http://www.w3.org/2000/svg">
  <sodipodi:namedview
     id="namedview16"
     pagecolor="#ffffff"
     bordercolor="#000000"
     borderopacity="0.25"
     inkscape:showpageshadow="2"
     inkscape:pageopacity="0.0"
     inkscape:pagecheckerboard="0"
     inkscape:deskcolor="#d1d1d1"
     inkscape:zoom="0.51895482"
     inkscape:cx="549.18075"
     inkscape:cy="433.56375"
     inkscape:window-width="1920"
     inkscape:window-height="965"
     inkscape:window-x="-1"
     inkscape:window-y="32"
     inkscape:window-maximized="0"
     inkscape:current-layer="svg16" />
  <defs
     id="defs4">
    <linearGradient
       id="photos-left"
       x1="120"
       y1="120"
       x2="520"
       y2="920"
       gradientUnits="userSpaceOnUse">
      <stop
         offset="0"
         stop-color="#88cef3"
         id="stop1" />
      <stop
         offset="1"
         stop-color="#c8eafb"
         id="stop2" />
    </linearGradient>
    <linearGradient
       id="photos-right"
       x1="512"
       y1="120"
       x2="904"
       y2="920"
       gradientUnits="userSpaceOnUse">
      <stop
         offset="0"
         stop-color="#f7f7f7"
         id="stop3" />
      <stop
         offset="1"
         stop-color="#ececec"
         id="stop4" />
    </linearGradient>
  </defs>
  <rect
     x="120"
     y="120"
     width="784"
     height="784"
     rx="120"
     fill="#111"
     id="rect4" />
  <g
     id="g5">
    <path
       d="M148 240C148 189.19 189.19 148 240 148H512V876H240C189.19 876 148 834.81 148 784V240Z"
       fill="url(#photos-left)"
       id="path4" />
    <path
       d="M512 148H784C834.81 148 876 189.19 876 240V784C876 834.81 834.81 876 784 876H512V148Z"
       fill="url(#photos-right)"
       id="path5" />
  </g>
  <rect
     x="205.21764"
     y="206.79884"
     width="613.5647"
     height="618.11292"
     rx="79.683731"
     fill="#f8f8f8"
     stroke="#000000"
     stroke-width="29.9884"
     id="rect5" />
  <g
     transform="translate(512,515.81368)"
     stroke="#000000"
     stroke-width="14"
     stroke-linejoin="round"
     id="g13">
    <ellipse
       cx="0"
       cy="-150"
       rx="52"
       ry="138"
       fill="#ff5d77"
       id="ellipse5" />
    <ellipse
       cx="0"
       cy="-150"
       rx="52"
       ry="138"
       transform="rotate(45)"
       fill="#ff9f4d"
       id="ellipse6" />
    <ellipse
       cx="0"
       cy="-150"
       rx="52"
       ry="138"
       transform="rotate(90)"
       fill="#ffd85b"
       id="ellipse7" />
    <ellipse
       cx="0"
       cy="-150"
       rx="52"
       ry="138"
       transform="rotate(135)"
       fill="#66d48f"
       id="ellipse8" />
    <ellipse
       cx="0"
       cy="-150"
       rx="52"
       ry="138"
       transform="scale(-1)"
       fill="#5fd1d4"
       id="ellipse9" />
    <ellipse
       cx="0"
       cy="-150"
       rx="52"
       ry="138"
       transform="rotate(-135)"
       fill="#63a6ff"
       id="ellipse10" />
    <ellipse
       cx="0"
       cy="-150"
       rx="52"
       ry="138"
       transform="rotate(-90)"
       fill="#8b84ff"
       id="ellipse11" />
    <ellipse
       cx="0"
       cy="-150"
       rx="52"
       ry="138"
       transform="rotate(-45)"
       fill="#e46bff"
       id="ellipse12" />
    <circle
       cx="0"
       cy="0"
       r="78"
       fill="#ffffff"
       id="circle12" />
    <circle
       cx="0"
       cy="0"
       r="52"
       fill="#ff5f8c"
       id="circle13" />
  </g>
</svg>
