<?xml version="1.0" encoding="UTF-8"?>
<svg xmlns="http://www.w3.org/2000/svg" width="512" height="512" viewBox="0 0 512 512" role="img" aria-label="Photos App Icon">
  <defs>
    <!-- App icon rounded-square background gradient (macOS Big Sur style) -->
    <linearGradient id="bgGradient" x1="0" y1="0" x2="1" y2="1">
      <stop offset="0%" stop-color="#6AA8FF"/>
      <stop offset="50%" stop-color="#6B80FF"/>
      <stop offset="100%" stop-color="#7A4BFF"/>
    </linearGradient>
    <!-- Subtle top highlight -->
    <radialGradient id="gloss" cx="50%" cy="0%" r="75%">
      <stop offset="0%" stop-color="#FFFFFF" stop-opacity="0.28"/>
      <stop offset="60%" stop-color="#FFFFFF" stop-opacity="0.08"/>
      <stop offset="100%" stop-color="#FFFFFF" stop-opacity="0"/>
    </radialGradient>

    <!-- Petal gradients (rainbow-like) -->
    <linearGradient id="petal-red" x1="0" y1="0" x2="0" y2="1">
      <stop offset="0%" stop-color="#FF6A6A"/>
      <stop offset="100%" stop-color="#FF2D7A"/>
    </linearGradient>
    <linearGradient id="petal-orange" x1="0" y1="0" x2="0" y2="1">
      <stop offset="0%" stop-color="#FFB86A"/>
      <stop offset="100%" stop-color="#FF8C3A"/>
    </linearGradient>
    <linearGradient id="petal-yellow" x1="0" y1="0" x2="0" y2="1">
      <stop offset="0%" stop-color="#FFE36A"/>
      <stop offset="100%" stop-color="#FFC800"/>
    </linearGradient>
    <linearGradient id="petal-green" x1="0" y1="0" x2="0" y2="1">
      <stop offset="0%" stop-color="#6AFF9A"/>
      <stop offset="100%" stop-color="#22CC88"/>
    </linearGradient>
    <linearGradient id="petal-teal" x1="0" y1="0" x2="0" y2="1">
      <stop offset="0%" stop-color="#6AFFF3"/>
      <stop offset="100%" stop-color="#00C8D6"/>
    </linearGradient>
    <linearGradient id="petal-blue" x1="0" y1="0" x2="0" y2="1">
      <stop offset="0%" stop-color="#6AB3FF"/>
      <stop offset="100%" stop-color="#2D79FF"/>
    </linearGradient>
    <linearGradient id="petal-indigo" x1="0" y1="0" x2="0" y2="1">
      <stop offset="0%" stop-color="#8C7BFF"/>
      <stop offset="100%" stop-color="#694BFF"/>
    </linearGradient>
    <linearGradient id="petal-magenta" x1="0" y1="0" x2="0" y2="1">
      <stop offset="0%" stop-color="#FF7AF2"/>
      <stop offset="100%" stop-color="#D848FF"/>
    </linearGradient>

    <!-- Soft shadow for center lens -->
    <filter id="softShadow" x="-50%" y="-50%" width="200%" height="200%">
      <feDropShadow dx="0" dy="8" stdDeviation="10" flood-color="#000" flood-opacity="0.18"/>
    </filter>
  </defs>

  <!-- Background rounded square -->
  <g>
    <rect x="32" y="32" width="448" height="448" rx="96" ry="96" fill="url(#bgGradient)"/>
    <rect x="32" y="32" width="448" height="448" rx="96" ry="96" fill="url(#gloss)"/>
  </g>

  <!-- Flower petals (8 petals around center) -->
  <!-- Petal shape: vertically oriented ellipse, rotated around center -->
  <g transform="translate(256,256)">
    <ellipse cx="0" cy="-122" rx="46" ry="118" fill="url(#petal-red)" transform="rotate(0)"/>
    <ellipse cx="0" cy="-122" rx="46" ry="118" fill="url(#petal-orange)" transform="rotate(45)"/>
    <ellipse cx="0" cy="-122" rx="46" ry="118" fill="url(#petal-yellow)" transform="rotate(90)"/>
    <ellipse cx="0" cy="-122" rx="46" ry="118" fill="url(#petal-green)" transform="rotate(135)"/>
    <ellipse cx="0" cy="-122" rx="46" ry="118" fill="url(#petal-teal)" transform="rotate(180)"/>
    <ellipse cx="0" cy="-122" rx="46" ry="118" fill="url(#petal-blue)" transform="rotate(225)"/>
    <ellipse cx="0" cy="-122" rx="46" ry="118" fill="url(#petal-indigo)" transform="rotate(270)"/>
    <ellipse cx="0" cy="-122" rx="46" ry="118" fill="url(#petal-magenta)" transform="rotate(315)"/>
  </g>

  <!-- Center lens/ring -->
  <g filter="url(#softShadow)">
    <circle cx="256" cy="256" r="76" fill="#ffffff" fill-opacity="0.9"/>
    <circle cx="256" cy="256" r="54" fill="#f5f7ff"/>
    <radialGradient id="lensGlow" cx="50%" cy="50%" r="60%">
      <stop offset="0%" stop-color="#BFD0FF" stop-opacity="0.9"/>
      <stop offset="65%" stop-color="#7BA2FF" stop-opacity="0.55"/>
      <stop offset="100%" stop-color="#5B7CFF" stop-opacity="0.35"/>
    </radialGradient>
    <circle cx="256" cy="256" r="40" fill="url(#lensGlow)"/>
    <circle cx="242" cy="242" r="10" fill="#fff" fill-opacity="0.85"/>
  </g>

  <!-- Subtle inner vignette -->
  <radialGradient id="vignette" cx="50%" cy="50%" r="80%">
    <stop offset="70%" stop-color="#000" stop-opacity="0"/>
    <stop offset="100%" stop-color="#000" stop-opacity="0.10"/>
  </radialGradient>
  <rect x="32" y="32" width="448" height="448" rx="96" ry="96" fill="url(#vignette)"/>
</svg>
